<svg xmlns="http://www.w3.org/2000/svg" fill="none" style="-webkit-print-color-adjust:exact" viewBox="0 0 80.011 80.009"><g xmlns:xlink="http://www.w3.org/1999/xlink" xml:space="preserve" fill="#000"><path fill="#fff" d="M27.398 9.411c-.01 0-.019 0 0 0Zc-1.19 0-2.285.449-3.112 1.267a4.363 4.363 0 0 0-1.305 3.098c-.018 2.875 3.23 6.655 3.601 7.077.188.213.457.337.741.34h.01c.28 0 .548-.118.738-.325.376-.41 3.674-4.098 3.692-7.039a4.361 4.361 0 0 0-1.267-3.112 4.363 4.363 0 0 0-3.098-1.306Zm-.05 9.21c-.999-1.318-2.376-3.446-2.368-4.834a2.376 2.376 0 0 1 .711-1.687 2.374 2.374 0 0 1 1.68-.689h.015a2.375 2.375 0 0 1 1.686.71c.449.454.694 1.057.69 1.695-.009 1.434-1.388 3.503-2.414 4.805ZM13.411 32.244c2.873 0 6.634-3.23 7.054-3.601a.997.997 0 0 0 .015-1.488c-.411-.376-4.098-3.674-7.039-3.692h-.028a4.358 4.358 0 0 0-3.084 1.267 4.365 4.365 0 0 0-1.305 3.098 4.361 4.361 0 0 0 1.267 3.112 4.366 4.366 0 0 0 3.12 1.304Zc-.015 0-.008 0 0 0Zm-2.387-4.405a2.38 2.38 0 0 1 .71-1.687 2.374 2.374 0 0 1 1.679-.689h.015c1.434.009 3.504 1.388 4.805 2.414-1.314.995-3.433 2.367-4.821 2.367h-.013a2.375 2.375 0 0 1-1.686-.71 2.376 2.376 0 0 1-.689-1.695ZM37.707 13.421c-.009-.001-.018-.001 0 0Za4.37 4.37 0 0 0-3.112 1.267c-2.045 2.021-2.422 6.99-2.459 7.551a1.003 1.003 0 0 0 .998 1.065l.044-.001c.556-.024 5.496-.301 7.588-2.367a4.4 4.4 0 0 0 .038-6.21 4.36 4.36 0 0 0-3.097-1.305Zm1.654 6.091c-1.021 1.009-3.461 1.496-5.107 1.691.224-1.656.75-4.108 1.746-5.092v-.001a2.38 2.38 0 0 1 1.68-.688c.617 0 1.234.236 1.701.708a2.395 2.395 0 0 1-.02 3.382ZM22.138 31.958c-.556.024-5.496.301-7.588 2.367a4.396 4.396 0 0 0-.038 6.209 4.362 4.362 0 0 0 3.097 1.305h.027a4.362 4.362 0 0 0 3.085-1.267c2.045-2.021 2.422-6.99 2.459-7.551a1.003 1.003 0 0 0-.284-.765.991.991 0 0 0-.758-.298Zm-2.822 7.19Zc-.455.45-1.014.717-1.695.69a2.393 2.393 0 0 1-1.666-4.091c1.021-1.009 3.461-1.496 5.107-1.691-.224 1.657-.75 4.109-1.746 5.092ZM21.895 23.424c.021.001.043.002 0 0Zc.325.002.576-.1.764-.284a.997.997 0 0 0 .299-.758c-.024-.557-.3-5.496-2.367-7.589a4.362 4.362 0 0 0-3.097-1.305h-.028a4.353 4.353 0 0 0-3.084 1.268 4.362 4.362 0 0 0-1.305 3.097 4.363 4.363 0 0 0 1.267 3.112c2.021 2.045 6.991 2.423 7.551 2.459Zm-6.107-7.246a2.372 2.372 0 0 1 1.679-.689h.016a2.374 2.374 0 0 1 1.686.711c1.008 1.021 1.497 3.461 1.691 5.106-1.656-.225-4.108-.751-5.093-1.747a2.373 2.373 0 0 1-.69-1.694 2.376 2.376 0 0 1 .711-1.687ZM52.033 34.046c-.01 0-.019 0 0 0Zc-1.19 0-2.285.449-3.112 1.267a4.363 4.363 0 0 0-1.305 3.098c-.018 2.875 3.23 6.655 3.601 7.077.188.213.457.337.741.34h.01c.28 0 .548-.118.738-.325.376-.41 3.674-4.098 3.692-7.039a4.361 4.361 0 0 0-1.267-3.112 4.363 4.363 0 0 0-3.098-1.306Zm-.051 9.21c-.999-1.318-2.376-3.446-2.368-4.834a2.376 2.376 0 0 1 .711-1.687 2.374 2.374 0 0 1 1.68-.689h.015a2.375 2.375 0 0 1 1.686.71c.449.454.694 1.057.69 1.695-.008 1.434-1.388 3.503-2.414 4.805ZM52.055 58.816a.986.986 0 0 0-.748.325c-.376.41-3.674 4.098-3.692 7.039a4.397 4.397 0 0 0 4.364 4.418h.026a4.398 4.398 0 0 0 4.392-4.364c.018-2.875-3.23-6.656-3.601-7.078a1.003 1.003 0 0 0-.741-.34Zm-.05 9.783c-.004 0-.009 0 0 0Za2.397 2.397 0 0 1-2.39-2.406c.009-1.434 1.388-3.503 2.414-4.805.999 1.318 2.376 3.446 2.368 4.835a2.396 2.396 0 0 1-2.392 2.376ZM66.599 48.098c-2.873 0-6.634 3.23-7.055 3.601a1.002 1.002 0 0 0-.015 1.488c.411.376 4.099 3.675 7.039 3.692h.028a4.36 4.36 0 0 0 3.085-1.267 4.365 4.365 0 0 0 1.305-3.098c.015-2.42-1.943-4.401-4.387-4.416Zc.026-.003.008 0 0 0Zm2.387 4.405a2.38 2.38 0 0 1-.71 1.687c-.454.45-1.067.657-1.695.689-1.435-.009-3.505-1.389-4.807-2.415 1.33-1.012 3.476-2.398 4.836-2.366a2.393 2.393 0 0 1 2.376 2.405ZM38.045 56.879c2.873 0 6.634-3.23 7.055-3.601a.997.997 0 0 0 .015-1.488c-.411-.376-4.099-3.675-7.039-3.692h-.028a4.358 4.358 0 0 0-3.084 1.267 4.365 4.365 0 0 0-1.305 3.098 4.36 4.36 0 0 0 1.267 3.112 4.374 4.374 0 0 0 3.119 1.304Zc-.022-.003-.008 0 0 0Zm-2.386-4.405a2.38 2.38 0 0 1 .71-1.687c.454-.45 1.081-.716 1.695-.689 1.434.009 3.503 1.388 4.805 2.414-1.314.995-3.434 2.367-4.822 2.367h-.012a2.379 2.379 0 0 1-1.687-.711 2.372 2.372 0 0 1-.689-1.694ZM57.769 47.937c.015 0 .029 0 0 0Zc.6-.025 5.54-.302 7.631-2.368a4.396 4.396 0 0 0 .038-6.21 4.397 4.397 0 0 0-6.209-.038v.001c-2.046 2.021-2.423 6.991-2.459 7.551a1.002 1.002 0 0 0 .999 1.064Zm2.866-7.192a2.392 2.392 0 0 1 3.36 3.402c-1.02 1.008-3.458 1.496-5.104 1.691.226-1.639.756-4.117 1.744-5.093ZM47.531 56.892a.985.985 0 0 0-.759-.299c-.556.024-5.496.301-7.588 2.367a4.396 4.396 0 0 0-.038 6.209 4.362 4.362 0 0 0 3.097 1.305h.028a4.36 4.36 0 0 0 3.085-1.267c2.045-2.021 2.422-6.99 2.459-7.551a1 1 0 0 0-.284-.764Zm-3.58 6.891Zc-.455.45-1.047.676-1.695.69a2.393 2.393 0 0 1-1.665-4.091c1.021-1.009 3.461-1.496 5.107-1.691-.225 1.657-.751 4.109-1.747 5.092ZM57.86 57.154a.997.997 0 0 0-1.063 1.042c.024.557.3 5.496 2.367 7.588a4.362 4.362 0 0 0 3.097 1.305h.027a4.36 4.36 0 0 0 3.085-1.267 4.362 4.362 0 0 0 1.305-3.097 4.365 4.365 0 0 0-1.267-3.113c-2.021-2.045-6.991-2.422-7.551-2.458Zm6.107 7.245c-.455.448-1.065.664-1.694.689a2.376 2.376 0 0 1-1.687-.711c-1.007-1.02-1.496-3.458-1.691-5.104 1.639.227 4.118.757 5.093 1.744.449.454.694 1.056.69 1.694a2.379 2.379 0 0 1-.711 1.688ZM46.529 48.059c.021.001.043.002 0 0Zc.325.002.576-.1.764-.284a.997.997 0 0 0 .299-.758c-.024-.557-.3-5.497-2.367-7.588a4.36 4.36 0 0 0-3.097-1.306h-.027a4.358 4.358 0 0 0-3.085 1.267 4.362 4.362 0 0 0-1.305 3.097 4.364 4.364 0 0 0 1.267 3.113c2.022 2.045 6.991 2.422 7.551 2.459Zm-6.107-7.247a2.376 2.376 0 0 1 1.68-.689h.015a2.372 2.372 0 0 1 1.686.711c1.008 1.02 1.497 3.461 1.691 5.106-1.656-.225-4.108-.751-5.092-1.747a2.373 2.373 0 0 1-.69-1.694 2.375 2.375 0 0 1 .71-1.687Z" class="fills"/><path fill="#fff" d="M52.322 29.18c-12.761 0-23.143 10.382-23.143 23.143 0 12.761 10.382 23.142 23.143 23.142 12.761 0 23.142-10.381 23.142-23.142S65.083 29.18 52.322 29.18Zm0 44.284c-11.658 0-21.143-9.484-21.143-21.142s9.484-21.143 21.143-21.143c11.658 0 21.142 9.484 21.142 21.143 0 11.657-9.484 21.142-21.142 21.142Z" class="fills"/><path fill="#fff" d="M55.217 24.787C53.76 10.851 41.762 0 27.688 0 12.42 0 0 12.421 0 27.687c0 14.306 10.626 26.061 24.787 27.53 1.452 13.911 13.246 24.792 27.536 24.792 15.267 0 27.688-12.421 27.688-27.688-.001-14.288-10.882-26.082-24.794-27.534ZM2 27.687C2 13.523 13.523 1.999 27.688 1.999c12.944 0 23.995 9.891 25.503 22.657-.289-.009-.577-.022-.869-.022-.573 0-1.141.023-1.706.058A23.045 23.045 0 0 0 27.688 4.545c-12.761 0-23.142 10.382-23.142 23.143a23.061 23.061 0 0 0 20.147 22.93 28.33 28.33 0 0 0-.058 1.705c0 .291.013.579.022.868C11.893 51.682 2 40.627 2 27.687Zm36.133.872a21.146 21.146 0 0 1-.989-.731c1.315-.995 3.432-2.365 4.819-2.365h.013a2.36 2.36 0 0 1 1.554.612 27.51 27.51 0 0 0-5.397 2.484Zm7.498-3.102a4.37 4.37 0 0 0-3.644-1.994h-.023c-2.873 0-6.634 3.23-7.054 3.601a1.002 1.002 0 0 0-.015 1.488c.031.028.599.545 1.446 1.182a27.907 27.907 0 0 0-6.692 6.727 23.48 23.48 0 0 0-1.488-1.939 1.003 1.003 0 0 0-.741-.34.957.957 0 0 0-.748.325c-.376.41-3.674 4.098-3.692 7.039a4.413 4.413 0 0 0 2.499 3.989 27.668 27.668 0 0 0-.591 3.092 21.067 21.067 0 0 1-18.343-20.94c0-11.658 9.484-21.143 21.142-21.143a21.052 21.052 0 0 1 20.938 18.344 27.656 27.656 0 0 0-2.994.569Zm-19.57 18.111a2.4 2.4 0 0 1-1.081-2.01c.009-1.434 1.387-3.502 2.413-4.804.319.419.703.961 1.069 1.547a27.575 27.575 0 0 0-2.401 5.267ZM52.322 78.01c-14.164 0-25.688-11.523-25.688-25.688s11.523-25.688 25.688-25.688S78.01 38.158 78.01 52.322 66.486 78.01 52.322 78.01Z" class="fills"/></g></svg>